<svg width="30" height="30" viewBox="0 0 30 30" fill="none" xmlns="http://www.w3.org/2000/svg">
<ellipse cx="42.5606" cy="85.8809" rx="13.5" ry="27.5" transform="rotate(-18.3481 42.5606 85.8809)" fill="black"/>
<ellipse cx="63.7272" cy="48.3088" rx="13.5" ry="27.5" transform="rotate(1.27409 63.7272 48.3088)" fill="black"/>
<ellipse cx="98.9262" cy="48.5629" rx="13.5" ry="27.5" transform="rotate(4.42594 98.9262 48.5629)" fill="black"/>
<ellipse cx="123.87" cy="94.1409" rx="13.5" ry="27.5" transform="rotate(7.09629 123.87 94.1409)" fill="black"/>
<path d="M105.119 115.876C120.037 135.937 92.4545 125.163 82.3929 122.184C72.3313 119.204 55.6522 117.395 65.7362 111.516C69.5691 98.5712 85.2081 79.2148 93.4655 84.7885C107.599 86.3661 102.88 105.827 105.119 115.876Z" fill="black"/>
<path d="M117.694 136.808C112.299 155.026 101.996 151.975 89.2868 148.212C48.3963 150.705 68.6895 133.242 71.6687 123.18C74.6479 113.118 78.3989 104.836 91.1083 108.599C101.763 114.883 120.673 126.746 117.694 136.808Z" fill="black"/>
<path d="M40.8091 125.257C37.7912 135.449 44.7892 146.508 56.4394 149.958C68.0897 153.408 79.9806 147.942 82.9985 137.749C86.0164 127.557 75.4641 99.7953 69.7833 104.892C64.1025 109.989 43.827 115.065 40.8091 125.257Z" fill="black"/>
</svg>
